<?xml version="1.0" encoding="utf-8"?>
<!-- Generator: Adobe Illustrator 23.0.3, SVG Export Plug-In . SVG Version: 6.00 Build 0)  -->
<svg version="1.1" id="Capa_1" xmlns="http://www.w3.org/2000/svg" xmlns:xlink="http://www.w3.org/1999/xlink" x="0px" y="0px"
	 viewBox="0 0 900.1 511" style="enable-background:new 0 0 900.1 511;" xml:space="preserve">
<style type="text/css">
	.st0{fill:#A53297;}
	.st1{fill:#FF9B0A;}
	.st2{fill:#FF220A;}
</style>
<g>
	<path class="st0" d="M469.6-0.5H181.2c-9.6,0-17.5,7.8-17.5,17.5v191.5L72.4,106.8c-2.7-3-6.3-4.7-10.3-4.9
		c-4-0.2-7.8,1.1-10.7,3.8l-20.5,18.4c-6.1,5.5-6.6,14.9-1.1,21l129,143.6c1.4,1.6,3.1,2.8,5,3.6v115.5h-29.1
		c-4.1,0-7.5,3.4-7.5,7.5s3.3,7.5,7.5,7.5H341c1.4,0,2.5,1.1,2.5,2.5v15.4c0,22.2,10.4,42,26.7,54.8H104.9
		c-30.3,0-54.9-24.6-54.9-54.8v-15.4c0-1.4,1.1-2.5,2.5-2.5H102c4.1,0,7.5-3.4,7.5-7.5s-3.4-7.5-7.5-7.5H52.5
		c-9.6,0-17.5,7.8-17.5,17.5v15.4c0,38.5,31.3,69.8,69.8,69.8h312.3c38.5,0,69.8-31.3,69.8-69.8V237c0-4.1-3.3-7.5-7.5-7.5
		c-4.1,0-7.5,3.4-7.5,7.5v203.7c0,30.2-24.6,54.8-54.8,54.8h-4c-30.2,0-54.8-24.6-54.8-54.8v-15.4c0-9.6-7.8-17.5-17.5-17.5H178.7
		V297.7l21.4,10.6c1.7,0.8,3.5,1.3,5.3,1.3c2.9,0,5.7-1,7.9-3.1c3.7-3.3,4.9-8.4,3.2-13l-11.5-31c0.1-0.5,0.1-0.9,0.1-1.4
		c0.2-4-1.1-7.8-3.8-10.7l-22.7-25.3V17c0-1.4,1.1-2.5,2.5-2.5h288.4c1.4,0,2.5,1.1,2.5,2.5v97.6c0,4.1,3.3,7.5,7.5,7.5
		c4.1,0,7.5-3.3,7.5-7.5V17C487,7.3,479.2-0.5,469.6-0.5z M61.3,116.9l8.9,9.9l-20.4,18.3l-8.9-9.9L61.3,116.9z M59.9,156.2l4.6-4.1
		l109.9,122.4l-4.6,4.1L59.9,156.2z M185.7,284.5l8.6-7.8l5.5,14.8L185.7,284.5z M185.5,264.4L75.6,142.1l4.6-4.1l109.9,122.4
		L185.5,264.4z"/>
	<path class="st0" d="M479.5,139.7c-4.1,0-7.5,3.3-7.5,7.5v57.2c0,4.1,3.4,7.5,7.5,7.5s7.5-3.3,7.5-7.5v-57.2
		C487,143,483.7,139.7,479.5,139.7z"/>
	<path class="st0" d="M239.2,149.8c-14.1,0-25.6,11.5-25.6,25.6s11.5,25.6,25.6,25.6s25.6-11.5,25.6-25.6S253.3,149.8,239.2,149.8z
		 M239.2,186.1c-5.9,0-10.6-4.8-10.6-10.6s4.8-10.6,10.6-10.6s10.6,4.8,10.6,10.6S245.1,186.1,239.2,186.1z"/>
	<path class="st0" d="M287.3,184.5H324c4.1,0,7.5-3.4,7.5-7.5s-3.4-7.5-7.5-7.5h-36.7c-4.1,0-7.5,3.4-7.5,7.5
		S283.2,184.5,287.3,184.5z"/>
	<path class="st0" d="M415.2,187.5H287.3c-4.1,0-7.5,3.3-7.5,7.5c0,4.1,3.4,7.5,7.5,7.5h127.9c4.1,0,7.5-3.4,7.5-7.5
		C422.7,190.8,419.3,187.5,415.2,187.5z"/>
	<path class="st0" d="M287.4,163.4L287.4,163.4c4.2,0,7.5-3.4,7.5-7.5s-3.4-7.4-7.5-7.4c0,0,0,0-0.1,0h-0.1c-4.1,0-7.4,3.4-7.4,7.5
		C279.9,160,283.3,163.4,287.4,163.4z"/>
	<path class="st0" d="M239.2,228.9c-14.1,0-25.6,11.5-25.6,25.6s11.5,25.6,25.6,25.6s25.6-11.5,25.6-25.6S253.3,228.9,239.2,228.9z
		 M239.2,265.1c-5.9,0-10.6-4.8-10.6-10.6c0-5.9,4.8-10.6,10.6-10.6s10.6,4.8,10.6,10.6C249.8,260.4,245.1,265.1,239.2,265.1z"/>
	<path class="st0" d="M287.3,263.6H324c4.1,0,7.5-3.4,7.5-7.5s-3.4-7.5-7.5-7.5h-36.7c-4.1,0-7.5,3.4-7.5,7.5
		C279.9,260.2,283.2,263.6,287.3,263.6z"/>
	<path class="st0" d="M415.2,266.6H287.3c-4.1,0-7.5,3.3-7.5,7.5c0,4.1,3.4,7.5,7.5,7.5h127.9c4.1,0,7.5-3.4,7.5-7.5
		C422.7,269.9,419.3,266.6,415.2,266.6z"/>
	<path class="st0" d="M287.4,242.4L287.4,242.4c4.2,0,7.5-3.4,7.5-7.5s-3.4-7.4-7.5-7.4c0,0,0,0-0.1,0h-0.1c-4.1,0-7.4,3.4-7.4,7.5
		C279.9,239.1,283.3,242.4,287.4,242.4z"/>
	<path class="st0" d="M239.2,308c-14.1,0-25.6,11.5-25.6,25.6s11.5,25.6,25.6,25.6s25.6-11.5,25.6-25.6
		C264.8,319.4,253.3,308,239.2,308z M239.2,344.2c-5.9,0-10.6-4.8-10.6-10.6c0-5.9,4.8-10.6,10.6-10.6s10.6,4.8,10.6,10.6
		C249.8,339.4,245.1,344.2,239.2,344.2z"/>
	<path class="st0" d="M287.3,342.7H324c4.1,0,7.5-3.4,7.5-7.5s-3.4-7.5-7.5-7.5h-36.7c-4.1,0-7.5,3.4-7.5,7.5
		C279.9,339.3,283.2,342.7,287.3,342.7z"/>
	<path class="st0" d="M287.3,360.6h127.9c4.1,0,7.5-3.4,7.5-7.5s-3.4-7.5-7.5-7.5H287.3c-4.1,0-7.5,3.3-7.5,7.5
		C279.9,357.3,283.2,360.6,287.3,360.6z"/>
	<path class="st0" d="M287.4,321.5L287.4,321.5c4.2,0,7.5-3.4,7.5-7.5s-3.4-7.4-7.5-7.4c0,0,0,0-0.1,0h-0.1c-4.1,0-7.4,3.4-7.4,7.5
		C279.9,318.2,283.3,321.5,287.4,321.5z"/>
	<path class="st0" d="M433.9,97.6V54.2c0-4.1-3.4-7.5-7.5-7.5H224.3c-4.1,0-7.5,3.3-7.5,7.5v43.4c0,4.1,3.3,7.5,7.5,7.5h202.1
		C430.5,105.1,433.9,101.7,433.9,97.6z M418.9,90.1H231.8V61.7h187.1L418.9,90.1L418.9,90.1z"/>
</g>
<g>
	<path class="st1" d="M781.2,28.6H655.8c-4.2,0-7.6,3.4-7.6,7.6v83.2l-39.7-44.2c-1.2-1.3-2.7-2-4.5-2.1c-1.7-0.1-3.4,0.5-4.7,1.7
		l-8.9,8c-2.7,2.4-2.9,6.5-0.5,9.1l56.1,62.4c0.6,0.7,1.3,1.2,2.2,1.6v50.2h-12.6c-1.8,0-3.3,1.5-3.3,3.3s1.4,3.3,3.3,3.3h89.7
		c0.6,0,1.1,0.5,1.1,1.1v6.7c0,9.6,4.5,18.3,11.6,23.8H622.7c-13.2,0-23.9-10.7-23.9-23.8v-6.7c0-0.6,0.5-1.1,1.1-1.1h21.5
		c1.8,0,3.3-1.5,3.3-3.3s-1.5-3.3-3.3-3.3h-21.5c-4.2,0-7.6,3.4-7.6,7.6v6.7c0,16.7,13.6,30.3,30.3,30.3h135.7
		c16.7,0,30.3-13.6,30.3-30.3V132c0-1.8-1.4-3.3-3.3-3.3c-1.8,0-3.3,1.5-3.3,3.3v88.5c0,13.1-10.7,23.8-23.8,23.8h-1.7
		c-13.1,0-23.8-10.7-23.8-23.8v-6.7c0-4.2-3.4-7.6-7.6-7.6h-70.5v-47.9l9.3,4.6c0.7,0.3,1.5,0.6,2.3,0.6c1.3,0,2.5-0.4,3.4-1.3
		c1.6-1.4,2.1-3.7,1.4-5.7l-5-13.5c0-0.2,0-0.4,0-0.6c0.1-1.7-0.5-3.4-1.7-4.7l-9.9-11V36.2c0-0.6,0.5-1.1,1.1-1.1h125.4
		c0.6,0,1.1,0.5,1.1,1.1v42.4c0,1.8,1.4,3.3,3.3,3.3c1.8,0,3.3-1.4,3.3-3.3V36.2C788.7,32,785.4,28.6,781.2,28.6z M603.7,79.6
		l3.9,4.3l-8.9,8l-3.9-4.3L603.7,79.6z M603.1,96.7l2-1.8l47.8,53.2l-2,1.8L603.1,96.7z M657.8,152.5l3.7-3.4l2.4,6.4L657.8,152.5z
		 M657.7,143.7l-47.8-53.1l2-1.8l47.8,53.2L657.7,143.7z"/>
	<path class="st1" d="M785.5,89.5c-1.8,0-3.3,1.4-3.3,3.3v24.9c0,1.8,1.5,3.3,3.3,3.3s3.3-1.4,3.3-3.3V92.8
		C788.7,91,787.3,89.5,785.5,89.5z"/>
	<path class="st1" d="M681,93.9c-6.1,0-11.1,5-11.1,11.1s5,11.1,11.1,11.1s11.1-5,11.1-11.1S687.2,93.9,681,93.9z M681,109.7
		c-2.6,0-4.6-2.1-4.6-4.6s2.1-4.6,4.6-4.6s4.6,2.1,4.6,4.6C685.6,107.6,683.6,109.7,681,109.7z"/>
	<path class="st1" d="M701.9,109h16c1.8,0,3.3-1.5,3.3-3.3s-1.5-3.3-3.3-3.3h-16c-1.8,0-3.3,1.5-3.3,3.3S700.2,109,701.9,109z"/>
	<path class="st1" d="M757.5,110.3h-55.6c-1.8,0-3.3,1.4-3.3,3.3c0,1.8,1.5,3.3,3.3,3.3h55.6c1.8,0,3.3-1.5,3.3-3.3
		C760.8,111.7,759.3,110.3,757.5,110.3z"/>
	<path class="st1" d="M702,99.8L702,99.8c1.8,0,3.3-1.5,3.3-3.3s-1.5-3.2-3.3-3.2l0,0l0,0c-1.8,0-3.2,1.5-3.2,3.3
		C698.7,98.3,700.2,99.8,702,99.8z"/>
	<path class="st1" d="M681,128.3c-6.1,0-11.1,5-11.1,11.1s5,11.1,11.1,11.1s11.1-5,11.1-11.1C692.2,133.3,687.2,128.3,681,128.3z
		 M681,144c-2.6,0-4.6-2.1-4.6-4.6c0-2.6,2.1-4.6,4.6-4.6s4.6,2.1,4.6,4.6C685.6,142,683.6,144,681,144z"/>
	<path class="st1" d="M701.9,143.4h16c1.8,0,3.3-1.5,3.3-3.3s-1.5-3.3-3.3-3.3h-16c-1.8,0-3.3,1.5-3.3,3.3
		C698.7,141.9,700.2,143.4,701.9,143.4z"/>
	<path class="st1" d="M757.5,144.7h-55.6c-1.8,0-3.3,1.4-3.3,3.3c0,1.8,1.5,3.3,3.3,3.3h55.6c1.8,0,3.3-1.5,3.3-3.3
		C760.8,146.1,759.3,144.7,757.5,144.7z"/>
	<path class="st1" d="M702,134.3L702,134.3c1.8,0,3.3-1.5,3.3-3.3c0-1.8-1.5-3.2-3.3-3.2l0,0l0,0c-1.8,0-3.2,1.5-3.2,3.3
		C698.7,132.8,700.2,134.3,702,134.3z"/>
	<path class="st1" d="M681,162.7c-6.1,0-11.1,5-11.1,11.1s5,11.1,11.1,11.1s11.1-5,11.1-11.1C692.2,167.6,687.2,162.7,681,162.7z
		 M681,178.4c-2.6,0-4.6-2.1-4.6-4.6c0-2.6,2.1-4.6,4.6-4.6s4.6,2.1,4.6,4.6C685.6,176.3,683.6,178.4,681,178.4z"/>
	<path class="st1" d="M701.9,177.8h16c1.8,0,3.3-1.5,3.3-3.3s-1.5-3.3-3.3-3.3h-16c-1.8,0-3.3,1.5-3.3,3.3
		C698.7,176.3,700.2,177.8,701.9,177.8z"/>
	<path class="st1" d="M701.9,185.5h55.6c1.8,0,3.3-1.5,3.3-3.3s-1.5-3.3-3.3-3.3h-55.6c-1.8,0-3.3,1.4-3.3,3.3
		C698.7,184.1,700.2,185.5,701.9,185.5z"/>
	<path class="st1" d="M702,168.5L702,168.5c1.8,0,3.3-1.5,3.3-3.3s-1.5-3.2-3.3-3.2l0,0l0,0c-1.8,0-3.2,1.5-3.2,3.3
		C698.7,167.1,700.2,168.5,702,168.5z"/>
	<path class="st1" d="M765.7,71.2V52.3c0-1.8-1.5-3.3-3.3-3.3h-87.8c-1.8,0-3.3,1.4-3.3,3.3v18.9c0,1.8,1.4,3.3,3.3,3.3h87.8
		C764.2,74.5,765.7,73,765.7,71.2z M759.1,68h-81.3V55.7h81.3V68L759.1,68z"/>
</g>
<g>
	<path class="st2" d="M781.2,276.7H655.8c-4.2,0-7.6,3.4-7.6,7.6v83.2l-39.7-44.2c-1.2-1.3-2.7-2-4.5-2.1c-1.7-0.1-3.4,0.5-4.7,1.7
		l-8.9,8c-2.7,2.4-2.9,6.5-0.5,9.1l56.1,62.4c0.6,0.7,1.3,1.2,2.2,1.6v50.2h-12.6c-1.8,0-3.3,1.5-3.3,3.3s1.4,3.3,3.3,3.3h89.7
		c0.6,0,1.1,0.5,1.1,1.1v6.7c0,9.6,4.5,18.3,11.6,23.8H622.7c-13.2,0-23.9-10.7-23.9-23.8v-6.7c0-0.6,0.5-1.1,1.1-1.1h21.5
		c1.8,0,3.3-1.5,3.3-3.3s-1.5-3.3-3.3-3.3h-21.5c-4.2,0-7.6,3.4-7.6,7.6v6.7c0,16.7,13.6,30.3,30.3,30.3h135.7
		c16.7,0,30.3-13.6,30.3-30.3V380c0-1.8-1.4-3.3-3.3-3.3c-1.8,0-3.3,1.5-3.3,3.3v88.5c0,13.1-10.7,23.8-23.8,23.8h-1.7
		c-13.1,0-23.8-10.7-23.8-23.8v-6.7c0-4.2-3.4-7.6-7.6-7.6h-70.5v-47.9l9.3,4.6c0.7,0.3,1.5,0.6,2.3,0.6c1.3,0,2.5-0.4,3.4-1.3
		c1.6-1.4,2.1-3.7,1.4-5.7l-5-13.5c0-0.2,0-0.4,0-0.6c0.1-1.7-0.5-3.4-1.7-4.7l-9.9-11v-90.5c0-0.6,0.5-1.1,1.1-1.1h125.4
		c0.6,0,1.1,0.5,1.1,1.1v42.4c0,1.8,1.4,3.3,3.3,3.3c1.8,0,3.3-1.4,3.3-3.3v-42.4C788.7,280.1,785.4,276.7,781.2,276.7z
		 M603.7,327.7l3.9,4.3l-8.9,8l-3.9-4.3L603.7,327.7z M603.1,344.8l2-1.8l47.8,53.2l-2,1.8L603.1,344.8z M657.8,400.6l3.7-3.4
		l2.4,6.4L657.8,400.6z M657.7,391.8l-47.8-53.1l2-1.8l47.8,53.2L657.7,391.8z"/>
	<path class="st2" d="M785.5,337.6c-1.8,0-3.3,1.4-3.3,3.3v24.9c0,1.8,1.5,3.3,3.3,3.3s3.3-1.4,3.3-3.3v-24.9
		C788.7,339.1,787.3,337.6,785.5,337.6z"/>
	<path class="st2" d="M681,342c-6.1,0-11.1,5-11.1,11.1c0,6.1,5,11.1,11.1,11.1s11.1-5,11.1-11.1C692.1,347,687.2,342,681,342z
		 M681,357.8c-2.6,0-4.6-2.1-4.6-4.6s2.1-4.6,4.6-4.6s4.6,2.1,4.6,4.6C685.6,355.7,683.6,357.8,681,357.8z"/>
	<path class="st2" d="M701.9,357.1h16c1.8,0,3.3-1.5,3.3-3.3s-1.5-3.3-3.3-3.3h-16c-1.8,0-3.3,1.5-3.3,3.3S700.2,357.1,701.9,357.1z
		"/>
	<path class="st2" d="M757.5,358.4h-55.6c-1.8,0-3.3,1.4-3.3,3.3c0,1.8,1.5,3.3,3.3,3.3h55.6c1.8,0,3.3-1.5,3.3-3.3
		C760.8,359.8,759.3,358.4,757.5,358.4z"/>
	<path class="st2" d="M702,347.9L702,347.9c1.8,0,3.3-1.5,3.3-3.3s-1.5-3.2-3.3-3.2l0,0l0,0c-1.8,0-3.2,1.5-3.2,3.3
		C698.7,346.4,700.2,347.9,702,347.9z"/>
	<path class="st2" d="M681,376.4c-6.1,0-11.1,5-11.1,11.1c0,6.1,5,11.1,11.1,11.1s11.1-5,11.1-11.1
		C692.2,381.4,687.2,376.4,681,376.4z M681,392.1c-2.6,0-4.6-2.1-4.6-4.6c0-2.6,2.1-4.6,4.6-4.6s4.6,2.1,4.6,4.6
		C685.6,390.1,683.6,392.1,681,392.1z"/>
	<path class="st2" d="M701.9,391.5h16c1.8,0,3.3-1.5,3.3-3.3s-1.5-3.3-3.3-3.3h-16c-1.8,0-3.3,1.5-3.3,3.3
		C698.7,390,700.2,391.5,701.9,391.5z"/>
	<path class="st2" d="M757.5,392.8h-55.6c-1.8,0-3.3,1.4-3.3,3.3c0,1.8,1.5,3.3,3.3,3.3h55.6c1.8,0,3.3-1.5,3.3-3.3
		C760.8,394.2,759.3,392.8,757.5,392.8z"/>
	<path class="st2" d="M702,382.3L702,382.3c1.8,0,3.3-1.5,3.3-3.3c0-1.8-1.5-3.2-3.3-3.2l0,0l0,0c-1.8,0-3.2,1.5-3.2,3.3
		C698.7,380.8,700.2,382.3,702,382.3z"/>
	<path class="st2" d="M681,410.8c-6.1,0-11.1,5-11.1,11.1c0,6.1,5,11.1,11.1,11.1s11.1-5,11.1-11.1
		C692.2,415.7,687.2,410.8,681,410.8z M681,426.5c-2.6,0-4.6-2.1-4.6-4.6c0-2.6,2.1-4.6,4.6-4.6s4.6,2.1,4.6,4.6
		C685.6,424.4,683.6,426.5,681,426.5z"/>
	<path class="st2" d="M701.9,425.9h16c1.8,0,3.3-1.5,3.3-3.3s-1.5-3.3-3.3-3.3h-16c-1.8,0-3.3,1.5-3.3,3.3
		C698.7,424.4,700.2,425.9,701.9,425.9z"/>
	<path class="st2" d="M701.9,433.6h55.6c1.8,0,3.3-1.5,3.3-3.3s-1.5-3.3-3.3-3.3h-55.6c-1.8,0-3.3,1.4-3.3,3.3
		C698.7,432.2,700.2,433.6,701.9,433.6z"/>
	<path class="st2" d="M702,416.6L702,416.6c1.8,0,3.3-1.5,3.3-3.3s-1.5-3.2-3.3-3.2l0,0l0,0c-1.8,0-3.2,1.5-3.2,3.3
		C698.7,415.2,700.2,416.6,702,416.6z"/>
	<path class="st2" d="M765.7,319.3v-18.9c0-1.8-1.5-3.3-3.3-3.3h-87.8c-1.8,0-3.3,1.4-3.3,3.3v18.9c0,1.8,1.4,3.3,3.3,3.3h87.8
		C764.2,322.6,765.7,321.1,765.7,319.3z M759.1,316.1h-81.3v-12.3h81.3V316.1L759.1,316.1z"/>
</g>
</svg>
