<?xml version="1.0" encoding="utf-8"?>
<!-- Generator: Adobe Illustrator 23.0.3, SVG Export Plug-In . SVG Version: 6.00 Build 0)  -->
<svg version="1.1" id="Capa_1" xmlns="http://www.w3.org/2000/svg" xmlns:xlink="http://www.w3.org/1999/xlink" x="0px" y="0px"
	 viewBox="0 0 511 511" style="enable-background:new 0 0 511 511;" xml:space="preserve">
<style type="text/css">
	.st0{fill:#FF9B0A;}
</style>
<g>
	<path class="st0" d="M469.6-0.5H181.2c-9.6,0-17.5,7.8-17.5,17.5v191.5L72.4,106.8c-2.7-3-6.3-4.7-10.3-4.9
		c-4-0.2-7.8,1.1-10.7,3.8l-20.5,18.4c-6.1,5.5-6.6,14.9-1.1,21l129,143.6c1.4,1.6,3.1,2.8,5,3.6v115.5h-29.1
		c-4.1,0-7.5,3.4-7.5,7.5s3.3,7.5,7.5,7.5H341c1.4,0,2.5,1.1,2.5,2.5v15.4c0,22.2,10.4,42,26.7,54.8H104.9
		c-30.3,0-54.9-24.6-54.9-54.8v-15.4c0-1.4,1.1-2.5,2.5-2.5H102c4.1,0,7.5-3.4,7.5-7.5s-3.4-7.5-7.5-7.5H52.5
		c-9.6,0-17.5,7.8-17.5,17.5v15.4c0,38.5,31.3,69.8,69.8,69.8h312.3c38.5,0,69.8-31.3,69.8-69.8V237c0-4.1-3.3-7.5-7.5-7.5
		c-4.1,0-7.5,3.4-7.5,7.5v203.7c0,30.2-24.6,54.8-54.8,54.8h-4c-30.2,0-54.8-24.6-54.8-54.8v-15.4c0-9.6-7.8-17.5-17.5-17.5H178.7
		V297.7l21.4,10.6c1.7,0.8,3.5,1.3,5.3,1.3c2.9,0,5.7-1,7.9-3.1c3.7-3.3,4.9-8.4,3.2-13l-11.5-31c0.1-0.5,0.1-0.9,0.1-1.4
		c0.2-4-1.1-7.8-3.8-10.7l-22.7-25.3V17c0-1.4,1.1-2.5,2.5-2.5h288.4c1.4,0,2.5,1.1,2.5,2.5v97.6c0,4.1,3.3,7.5,7.5,7.5
		c4.1,0,7.5-3.3,7.5-7.5V17C487,7.3,479.2-0.5,469.6-0.5z M61.3,116.9l8.9,9.9l-20.4,18.3l-8.9-9.9L61.3,116.9z M59.9,156.2l4.6-4.1
		l109.9,122.4l-4.6,4.1L59.9,156.2z M185.7,284.5l8.6-7.8l5.5,14.8L185.7,284.5z M185.5,264.4L75.6,142.1l4.6-4.1l109.9,122.4
		L185.5,264.4z"/>
	<path class="st0" d="M479.5,139.7c-4.1,0-7.5,3.3-7.5,7.5v57.2c0,4.1,3.4,7.5,7.5,7.5s7.5-3.3,7.5-7.5v-57.2
		C487,143,483.7,139.7,479.5,139.7z"/>
	<path class="st0" d="M239.2,149.8c-14.1,0-25.6,11.5-25.6,25.6s11.5,25.6,25.6,25.6s25.6-11.5,25.6-25.6S253.3,149.8,239.2,149.8z
		 M239.2,186.1c-5.9,0-10.6-4.8-10.6-10.6s4.8-10.6,10.6-10.6s10.6,4.8,10.6,10.6S245.1,186.1,239.2,186.1z"/>
	<path class="st0" d="M287.3,184.5H324c4.1,0,7.5-3.4,7.5-7.5s-3.4-7.5-7.5-7.5h-36.7c-4.1,0-7.5,3.4-7.5,7.5
		S283.2,184.5,287.3,184.5z"/>
	<path class="st0" d="M415.2,187.5H287.3c-4.1,0-7.5,3.3-7.5,7.5c0,4.1,3.4,7.5,7.5,7.5h127.9c4.1,0,7.5-3.4,7.5-7.5
		C422.7,190.8,419.3,187.5,415.2,187.5z"/>
	<path class="st0" d="M287.4,163.4L287.4,163.4c4.2,0,7.5-3.4,7.5-7.5s-3.4-7.4-7.5-7.4c0,0,0,0-0.1,0h-0.1c-4.1,0-7.4,3.4-7.4,7.5
		C279.9,160,283.3,163.4,287.4,163.4z"/>
	<path class="st0" d="M239.2,228.9c-14.1,0-25.6,11.5-25.6,25.6s11.5,25.6,25.6,25.6s25.6-11.5,25.6-25.6S253.3,228.9,239.2,228.9z
		 M239.2,265.1c-5.9,0-10.6-4.8-10.6-10.6c0-5.9,4.8-10.6,10.6-10.6s10.6,4.8,10.6,10.6C249.8,260.4,245.1,265.1,239.2,265.1z"/>
	<path class="st0" d="M287.3,263.6H324c4.1,0,7.5-3.4,7.5-7.5s-3.4-7.5-7.5-7.5h-36.7c-4.1,0-7.5,3.4-7.5,7.5
		C279.9,260.2,283.2,263.6,287.3,263.6z"/>
	<path class="st0" d="M415.2,266.6H287.3c-4.1,0-7.5,3.3-7.5,7.5c0,4.1,3.4,7.5,7.5,7.5h127.9c4.1,0,7.5-3.4,7.5-7.5
		C422.7,269.9,419.3,266.6,415.2,266.6z"/>
	<path class="st0" d="M287.4,242.4L287.4,242.4c4.2,0,7.5-3.4,7.5-7.5s-3.4-7.4-7.5-7.4c0,0,0,0-0.1,0h-0.1c-4.1,0-7.4,3.4-7.4,7.5
		C279.9,239.1,283.3,242.4,287.4,242.4z"/>
	<path class="st0" d="M239.2,308c-14.1,0-25.6,11.5-25.6,25.6s11.5,25.6,25.6,25.6s25.6-11.5,25.6-25.6
		C264.8,319.4,253.3,308,239.2,308z M239.2,344.2c-5.9,0-10.6-4.8-10.6-10.6c0-5.9,4.8-10.6,10.6-10.6s10.6,4.8,10.6,10.6
		C249.8,339.4,245.1,344.2,239.2,344.2z"/>
	<path class="st0" d="M287.3,342.7H324c4.1,0,7.5-3.4,7.5-7.5s-3.4-7.5-7.5-7.5h-36.7c-4.1,0-7.5,3.4-7.5,7.5
		C279.9,339.3,283.2,342.7,287.3,342.7z"/>
	<path class="st0" d="M287.3,360.6h127.9c4.1,0,7.5-3.4,7.5-7.5s-3.4-7.5-7.5-7.5H287.3c-4.1,0-7.5,3.3-7.5,7.5
		C279.9,357.3,283.2,360.6,287.3,360.6z"/>
	<path class="st0" d="M287.4,321.5L287.4,321.5c4.2,0,7.5-3.4,7.5-7.5s-3.4-7.4-7.5-7.4c0,0,0,0-0.1,0h-0.1c-4.1,0-7.4,3.4-7.4,7.5
		C279.9,318.2,283.3,321.5,287.4,321.5z"/>
	<path class="st0" d="M433.9,97.6V54.2c0-4.1-3.4-7.5-7.5-7.5H224.3c-4.1,0-7.5,3.3-7.5,7.5v43.4c0,4.1,3.3,7.5,7.5,7.5h202.1
		C430.5,105.1,433.9,101.7,433.9,97.6z M418.9,90.1H231.8V61.7h187.1L418.9,90.1L418.9,90.1z"/>
</g>
</svg>
