<?xml version="1.0" encoding="utf-8"?>
<!-- Generator: Adobe Illustrator 23.0.3, SVG Export Plug-In . SVG Version: 6.00 Build 0)  -->
<svg version="1.1" id="Capa_1" xmlns="http://www.w3.org/2000/svg" xmlns:xlink="http://www.w3.org/1999/xlink" x="0px" y="0px"
	 viewBox="0 0 900.1 511" style="enable-background:new 0 0 900.1 511;" xml:space="preserve">
<style type="text/css">
	.st0{fill:#FF9B0A;}
</style>
<g>
	<path class="st0" d="M469.6-0.5H181.2c-9.6,0-17.5,7.8-17.5,17.5v191.5L72.4,106.8c-2.7-3-6.3-4.7-10.3-4.9
		c-4-0.2-7.8,1.1-10.7,3.8l-20.5,18.4c-6.1,5.5-6.6,14.9-1.1,21l129,143.6c1.4,1.6,3.1,2.8,5,3.6v115.5h-29.1
		c-4.1,0-7.5,3.4-7.5,7.5s3.3,7.5,7.5,7.5H341c1.4,0,2.5,1.1,2.5,2.5v15.4c0,22.2,10.4,42,26.7,54.8H104.9
		c-30.3,0-54.9-24.6-54.9-54.8v-15.4c0-1.4,1.1-2.5,2.5-2.5H102c4.1,0,7.5-3.4,7.5-7.5s-3.4-7.5-7.5-7.5H52.5
		c-9.6,0-17.5,7.8-17.5,17.5v15.4c0,38.5,31.3,69.8,69.8,69.8h312.3c38.5,0,69.8-31.3,69.8-69.8V237c0-4.1-3.3-7.5-7.5-7.5
		c-4.1,0-7.5,3.4-7.5,7.5v203.7c0,30.2-24.6,54.8-54.8,54.8h-4c-30.2,0-54.8-24.6-54.8-54.8v-15.4c0-9.6-7.8-17.5-17.5-17.5H178.7
		V297.7l21.4,10.6c1.7,0.8,3.5,1.3,5.3,1.3c2.9,0,5.7-1,7.9-3.1c3.7-3.3,4.9-8.4,3.2-13l-11.5-31c0.1-0.5,0.1-0.9,0.1-1.4
		c0.2-4-1.1-7.8-3.8-10.7l-22.7-25.3V17c0-1.4,1.1-2.5,2.5-2.5h288.4c1.4,0,2.5,1.1,2.5,2.5v97.6c0,4.1,3.3,7.5,7.5,7.5
		c4.1,0,7.5-3.3,7.5-7.5V17C487,7.3,479.2-0.5,469.6-0.5z M61.3,116.9l8.9,9.9l-20.4,18.3l-8.9-9.9L61.3,116.9z M59.9,156.2l4.6-4.1
		l109.9,122.4l-4.6,4.1L59.9,156.2z M185.7,284.5l8.6-7.8l5.5,14.8L185.7,284.5z M185.5,264.4L75.6,142.1l4.6-4.1l109.9,122.4
		L185.5,264.4z"/>
	<path class="st0" d="M479.5,139.7c-4.1,0-7.5,3.3-7.5,7.5v57.2c0,4.1,3.4,7.5,7.5,7.5s7.5-3.3,7.5-7.5v-57.2
		C487,143,483.7,139.7,479.5,139.7z"/>
	<path class="st0" d="M239.2,149.8c-14.1,0-25.6,11.5-25.6,25.6s11.5,25.6,25.6,25.6s25.6-11.5,25.6-25.6S253.3,149.8,239.2,149.8z
		 M239.2,186.1c-5.9,0-10.6-4.8-10.6-10.6s4.8-10.6,10.6-10.6s10.6,4.8,10.6,10.6S245.1,186.1,239.2,186.1z"/>
	<path class="st0" d="M287.3,184.5H324c4.1,0,7.5-3.4,7.5-7.5s-3.4-7.5-7.5-7.5h-36.7c-4.1,0-7.5,3.4-7.5,7.5
		S283.2,184.5,287.3,184.5z"/>
	<path class="st0" d="M415.2,187.5H287.3c-4.1,0-7.5,3.3-7.5,7.5c0,4.1,3.4,7.5,7.5,7.5h127.9c4.1,0,7.5-3.4,7.5-7.5
		C422.7,190.8,419.3,187.5,415.2,187.5z"/>
	<path class="st0" d="M287.4,163.4L287.4,163.4c4.2,0,7.5-3.4,7.5-7.5s-3.4-7.4-7.5-7.4c0,0,0,0-0.1,0h-0.1c-4.1,0-7.4,3.4-7.4,7.5
		C279.9,160,283.3,163.4,287.4,163.4z"/>
	<path class="st0" d="M239.2,228.9c-14.1,0-25.6,11.5-25.6,25.6s11.5,25.6,25.6,25.6s25.6-11.5,25.6-25.6S253.3,228.9,239.2,228.9z
		 M239.2,265.1c-5.9,0-10.6-4.8-10.6-10.6c0-5.9,4.8-10.6,10.6-10.6s10.6,4.8,10.6,10.6C249.8,260.4,245.1,265.1,239.2,265.1z"/>
	<path class="st0" d="M287.3,263.6H324c4.1,0,7.5-3.4,7.5-7.5s-3.4-7.5-7.5-7.5h-36.7c-4.1,0-7.5,3.4-7.5,7.5
		C279.9,260.2,283.2,263.6,287.3,263.6z"/>
	<path class="st0" d="M415.2,266.6H287.3c-4.1,0-7.5,3.3-7.5,7.5c0,4.1,3.4,7.5,7.5,7.5h127.9c4.1,0,7.5-3.4,7.5-7.5
		C422.7,269.9,419.3,266.6,415.2,266.6z"/>
	<path class="st0" d="M287.4,242.4L287.4,242.4c4.2,0,7.5-3.4,7.5-7.5s-3.4-7.4-7.5-7.4c0,0,0,0-0.1,0h-0.1c-4.1,0-7.4,3.4-7.4,7.5
		C279.9,239.1,283.3,242.4,287.4,242.4z"/>
	<path class="st0" d="M239.2,308c-14.1,0-25.6,11.5-25.6,25.6s11.5,25.6,25.6,25.6s25.6-11.5,25.6-25.6
		C264.8,319.4,253.3,308,239.2,308z M239.2,344.2c-5.9,0-10.6-4.8-10.6-10.6c0-5.9,4.8-10.6,10.6-10.6s10.6,4.8,10.6,10.6
		C249.8,339.4,245.1,344.2,239.2,344.2z"/>
	<path class="st0" d="M287.3,342.7H324c4.1,0,7.5-3.4,7.5-7.5s-3.4-7.5-7.5-7.5h-36.7c-4.1,0-7.5,3.4-7.5,7.5
		C279.9,339.3,283.2,342.7,287.3,342.7z"/>
	<path class="st0" d="M287.3,360.6h127.9c4.1,0,7.5-3.4,7.5-7.5s-3.4-7.5-7.5-7.5H287.3c-4.1,0-7.5,3.3-7.5,7.5
		C279.9,357.3,283.2,360.6,287.3,360.6z"/>
	<path class="st0" d="M287.4,321.5L287.4,321.5c4.2,0,7.5-3.4,7.5-7.5s-3.4-7.4-7.5-7.4c0,0,0,0-0.1,0h-0.1c-4.1,0-7.4,3.4-7.4,7.5
		C279.9,318.2,283.3,321.5,287.4,321.5z"/>
	<path class="st0" d="M433.9,97.6V54.2c0-4.1-3.4-7.5-7.5-7.5H224.3c-4.1,0-7.5,3.3-7.5,7.5v43.4c0,4.1,3.3,7.5,7.5,7.5h202.1
		C430.5,105.1,433.9,101.7,433.9,97.6z M418.9,90.1H231.8V61.7h187.1L418.9,90.1L418.9,90.1z"/>
</g>
<g>
	<path class="st0" d="M793.3,147.7H667.9c-4.2,0-7.6,3.4-7.6,7.6v83.2l-39.7-44.2c-1.2-1.3-2.7-2-4.5-2.1c-1.7-0.1-3.4,0.5-4.7,1.7
		l-8.9,8c-2.7,2.4-2.9,6.5-0.5,9.1l56.1,62.4c0.6,0.7,1.3,1.2,2.2,1.6v50.2h-12.6c-1.8,0-3.3,1.5-3.3,3.3c0,1.8,1.4,3.3,3.3,3.3
		h89.7c0.6,0,1.1,0.5,1.1,1.1v6.7c0,9.6,4.5,18.3,11.6,23.8H634.8c-13.2,0-23.9-10.7-23.9-23.8v-6.7c0-0.6,0.5-1.1,1.1-1.1h21.5
		c1.8,0,3.3-1.5,3.3-3.3c0-1.8-1.5-3.3-3.3-3.3H612c-4.2,0-7.6,3.4-7.6,7.6v6.7c0,16.7,13.6,30.3,30.3,30.3h135.7
		c16.7,0,30.3-13.6,30.3-30.3v-88.5c0-1.8-1.4-3.3-3.3-3.3c-1.8,0-3.3,1.5-3.3,3.3v88.5c0,13.1-10.7,23.8-23.8,23.8h-1.7
		c-13.1,0-23.8-10.7-23.8-23.8v-6.7c0-4.2-3.4-7.6-7.6-7.6h-70.5v-47.9l9.3,4.6c0.7,0.3,1.5,0.6,2.3,0.6c1.3,0,2.5-0.4,3.4-1.3
		c1.6-1.4,2.1-3.7,1.4-5.7l-5-13.5c0-0.2,0-0.4,0-0.6c0.1-1.7-0.5-3.4-1.7-4.7l-9.9-11v-90.5c0-0.6,0.5-1.1,1.1-1.1h125.4
		c0.6,0,1.1,0.5,1.1,1.1v42.4c0,1.8,1.4,3.3,3.3,3.3c1.8,0,3.3-1.4,3.3-3.3v-42.4C800.8,151.1,797.5,147.7,793.3,147.7z
		 M615.8,198.7l3.9,4.3l-8.9,8l-3.9-4.3L615.8,198.7z M615.2,215.8l2-1.8l47.8,53.2l-2,1.8L615.2,215.8z M669.9,271.6l3.7-3.4
		l2.4,6.4L669.9,271.6z M669.8,262.8L622,209.7l2-1.8l47.8,53.2L669.8,262.8z"/>
	<path class="st0" d="M797.6,208.6c-1.8,0-3.3,1.4-3.3,3.3v24.9c0,1.8,1.5,3.3,3.3,3.3c1.8,0,3.3-1.4,3.3-3.3v-24.9
		C800.8,210.1,799.4,208.6,797.6,208.6z"/>
	<path class="st0" d="M693.1,213c-6.1,0-11.1,5-11.1,11.1s5,11.1,11.1,11.1c6.1,0,11.1-5,11.1-11.1S699.3,213,693.1,213z
		 M693.1,228.8c-2.6,0-4.6-2.1-4.6-4.6c0-2.5,2.1-4.6,4.6-4.6c2.5,0,4.6,2.1,4.6,4.6C697.7,226.7,695.7,228.8,693.1,228.8z"/>
	<path class="st0" d="M714,228.1h16c1.8,0,3.3-1.5,3.3-3.3s-1.5-3.3-3.3-3.3h-16c-1.8,0-3.3,1.5-3.3,3.3S712.3,228.1,714,228.1z"/>
	<path class="st0" d="M769.6,229.4H714c-1.8,0-3.3,1.4-3.3,3.3c0,1.8,1.5,3.3,3.3,3.3h55.6c1.8,0,3.3-1.5,3.3-3.3
		C772.9,230.8,771.4,229.4,769.6,229.4z"/>
	<path class="st0" d="M714.1,218.9L714.1,218.9c1.8,0,3.3-1.5,3.3-3.3c0-1.8-1.5-3.2-3.3-3.2c0,0,0,0,0,0h0c-1.8,0-3.2,1.5-3.2,3.3
		C710.8,217.4,712.3,218.9,714.1,218.9z"/>
	<path class="st0" d="M693.1,247.4c-6.1,0-11.1,5-11.1,11.1c0,6.1,5,11.1,11.1,11.1c6.1,0,11.1-5,11.1-11.1
		C704.3,252.4,699.3,247.4,693.1,247.4z M693.1,263.1c-2.6,0-4.6-2.1-4.6-4.6c0-2.6,2.1-4.6,4.6-4.6c2.5,0,4.6,2.1,4.6,4.6
		C697.7,261.1,695.7,263.1,693.1,263.1z"/>
	<path class="st0" d="M714,262.5h16c1.8,0,3.3-1.5,3.3-3.3s-1.5-3.3-3.3-3.3h-16c-1.8,0-3.3,1.5-3.3,3.3
		C710.8,261,712.3,262.5,714,262.5z"/>
	<path class="st0" d="M769.6,263.8H714c-1.8,0-3.3,1.4-3.3,3.3c0,1.8,1.5,3.3,3.3,3.3h55.6c1.8,0,3.3-1.5,3.3-3.3
		C772.9,265.2,771.4,263.8,769.6,263.8z"/>
	<path class="st0" d="M714.1,253.3L714.1,253.3c1.8,0,3.3-1.5,3.3-3.3c0-1.8-1.5-3.2-3.3-3.2c0,0,0,0,0,0h0c-1.8,0-3.2,1.5-3.2,3.3
		C710.8,251.8,712.3,253.3,714.1,253.3z"/>
	<path class="st0" d="M693.1,281.8c-6.1,0-11.1,5-11.1,11.1s5,11.1,11.1,11.1c6.1,0,11.1-5,11.1-11.1
		C704.3,286.7,699.3,281.8,693.1,281.8z M693.1,297.5c-2.6,0-4.6-2.1-4.6-4.6c0-2.6,2.1-4.6,4.6-4.6c2.5,0,4.6,2.1,4.6,4.6
		C697.7,295.4,695.7,297.5,693.1,297.5z"/>
	<path class="st0" d="M714,296.9h16c1.8,0,3.3-1.5,3.3-3.3c0-1.8-1.5-3.3-3.3-3.3h-16c-1.8,0-3.3,1.5-3.3,3.3
		C710.8,295.4,712.3,296.9,714,296.9z"/>
	<path class="st0" d="M714,304.6h55.6c1.8,0,3.3-1.5,3.3-3.3s-1.5-3.3-3.3-3.3H714c-1.8,0-3.3,1.4-3.3,3.3
		C710.8,303.2,712.3,304.6,714,304.6z"/>
	<path class="st0" d="M714.1,287.6L714.1,287.6c1.8,0,3.3-1.5,3.3-3.3c0-1.8-1.5-3.2-3.3-3.2c0,0,0,0,0,0h0c-1.8,0-3.2,1.5-3.2,3.3
		C710.8,286.2,712.3,287.6,714.1,287.6z"/>
	<path class="st0" d="M777.8,190.3v-18.9c0-1.8-1.5-3.3-3.3-3.3h-87.8c-1.8,0-3.3,1.4-3.3,3.3v18.9c0,1.8,1.4,3.3,3.3,3.3h87.8
		C776.3,193.6,777.8,192.1,777.8,190.3z M771.2,187.1h-81.3v-12.3h81.3L771.2,187.1L771.2,187.1z"/>
</g>
</svg>
