<?xml version="1.0" encoding="utf-8"?>
<!-- Generator: Adobe Illustrator 23.0.3, SVG Export Plug-In . SVG Version: 6.00 Build 0)  -->
<svg version="1.1" id="Layer_1" xmlns="http://www.w3.org/2000/svg" xmlns:xlink="http://www.w3.org/1999/xlink" x="0px" y="0px"
	 viewBox="0 0 1219 512" style="enable-background:new 0 0 1219 512;" xml:space="preserve">
<style type="text/css">
	.st0{fill:#E7929B;}
	.st1{fill:#0000FF;}
</style>
<g>
	<path class="st0" d="M433.5,370.3c-8.9-6.1-20-9.1-30.6-12c-2.3-0.6-4.6-1.3-6.9-1.9c-13-3.8-21.4-11.4-22.4-20.2
		c-0.8-7.1,3.5-14,11.5-18.4c1.7-0.9,3.6-1.6,5.6-2.1v15.9c0,5.9,4.8,10.7,10.7,10.7c5.9,0,10.7-4.8,10.7-10.7v-15.1
		c6.2,1.5,12.3,4,17.3,7c5,3.1,11.6,1.4,14.6-3.6s1.4-11.6-3.6-14.6c-7.9-4.8-17.9-8.7-28.3-10.6V287c0-5.9-4.8-10.7-10.7-10.7
		c-5.9,0-10.7,4.8-10.7,10.7v7c-5.6,0.8-11,2.4-15.9,5.1c-15.6,8.6-24.1,23.7-22.4,39.4c1.9,17.7,16,32,37.5,38.4
		c0.2,0.1,0.5,0.1,0.7,0.2v50.2c-8.8-1.5-16.1-5.2-18.5-9.7c-2.7-5.2-9.1-7.3-14.4-4.6c-5.2,2.7-7.3,9.2-4.6,14.4
		c6.5,12.5,21.5,19.5,37.4,21.3v11.1c0,5.9,4.8,10.7,10.7,10.7c5.9,0,10.7-4.8,10.7-10.7v-11.9c2.2-0.4,4.4-1,6.4-1.6
		c16.7-5.3,29.2-19.8,31.7-37.1C452.5,393.5,446.2,379,433.5,370.3z M429.1,406.1c-1.3,9.2-8,17-17,19.8l0,0v-42.6
		c3.6,1.3,6.8,2.8,9.5,4.6C429.9,393.7,429.6,402.6,429.1,406.1z"/>
	<path class="st0" d="M401.4,234.7c-3.6,0-7.1,0.1-10.7,0.4V50.7c0-11.1-7.8-26.8-45-38.5C320.5,4.3,287.3,0,252,0
		s-68.5,4.3-93.7,12.2c-37.2,11.6-45,27.3-45,38.5v322.7c0,11.1,7.8,26.8,45,38.5c25.2,7.9,58.5,12.2,93.7,12.2
		c6.7,0,13.4-0.2,20.1-0.5c20.2,51.7,70.5,88.5,129.3,88.5c76.5,0,138.7-62.2,138.7-138.7C540,296.9,477.8,234.7,401.4,234.7z
		 M164.7,32.6c23.2-7.2,54.2-11.2,87.3-11.2s64.2,4,87.3,11.2c24.5,7.7,30,15.8,30,18.1s-5.5,10.5-30,18.1C316.2,76,285.2,80,252,80
		s-64.1-4-87.3-11.2c-24.5-7.7-30-15.8-30-18.1S140.2,40.2,164.7,32.6z M134.7,79.3c6.1,3.5,13.8,6.8,23.6,9.9
		c25.2,7.9,58.5,12.2,93.7,12.2s68.5-4.4,93.7-12.3c9.8-3.1,17.5-6.4,23.6-9.9v25.2c0,2.3-5.5,10.4-30,18.1
		c-23.2,7.2-54.2,11.2-87.3,11.2c-15.4,0-30.4-0.9-44.6-2.6c-5.8-0.7-11.2,3.5-11.9,9.3s3.5,11.2,9.3,11.9
		c15.1,1.8,30.9,2.7,47.2,2.7c35.2,0,68.5-4.3,93.7-12.2c9.8-3.1,17.5-6.4,23.6-9.9v79c0,2.3-5.5,10.4-30,18.1
		c-23.2,7.2-54.2,11.2-87.3,11.2s-64.2-4-87.3-11.2c-24.5-7.7-30-15.8-30-18.1v-25.2c6.1,3.5,13.8,6.8,23.6,9.9
		c25.2,7.9,58.5,12.2,93.7,12.2c21,0,41.1-1.5,59.8-4.5c5.8-0.9,9.8-6.4,8.9-12.2s-6.4-9.8-12.2-8.9c-17.3,2.8-36.8,4.2-56.4,4.2
		c-33.1,0-64.2-4-87.3-11.2c-24.5-7.7-30-15.8-30-18.1L134.7,79.3L134.7,79.3z M252,402.7c-33.1,0-64.2-4-87.3-11.2
		c-24.5-7.7-30-15.8-30-18.1v-25.2c6.1,3.5,13.8,6.8,23.6,9.9c25.2,7.9,58.5,12.2,93.7,12.2c3.6,0,7.1,0,10.7-0.1c0,1.1,0,2.2,0,3.3
		c0,1.2,0,2.4,0,3.6c0,0.4,0,0.8,0,1.1c0,0.8,0.1,1.7,0.1,2.5c0,0.5,0.1,0.9,0.1,1.4c0,0.7,0.1,1.5,0.1,2.2c0,0.5,0.1,1,0.1,1.5
		c0.1,0.7,0.1,1.4,0.2,2.1c0.1,0.5,0.1,1.1,0.2,1.6c0.1,0.6,0.1,1.3,0.2,1.9s0.2,1.2,0.2,1.8c0.1,0.6,0.2,1.2,0.3,1.7
		c0.1,0.6,0.2,1.3,0.3,1.9c0.1,0.5,0.2,1,0.3,1.5c0.1,0.7,0.3,1.4,0.4,2.1c0.1,0.4,0.2,0.9,0.3,1.3c0.1,0.3,0.1,0.5,0.2,0.8
		C261.2,402.6,256.6,402.7,252,402.7z M275,316.3L275,316.3c-0.4,0.9-0.8,1.7-1.1,2.5c-0.1,0.2-0.2,0.5-0.3,0.7
		c-0.2,0.4-0.3,0.8-0.5,1.2c-3.7,8.9-6.4,18.2-8.2,27.9c-4.3,0.1-8.6,0.2-12.9,0.2c-33.1,0-64.2-4-87.3-11.2
		c-24.5-7.7-30-15.8-30-18.1v-79l0,0c6.1,3.5,13.8,6.8,23.6,9.9c25.2,7.9,58.5,12.2,93.7,12.2c28.1,0,54.9-2.8,77.4-7.9
		c-12.5,7.6-23.9,17.2-33.5,28.5c-2.8,3.3-5.4,6.7-7.9,10.1c-11.6,1.1-23.7,1.6-36,1.6c-15.4,0-30.4-0.9-44.6-2.6
		c-5.8-0.7-11.2,3.5-11.9,9.3s3.5,11.2,9.3,11.9c15.1,1.8,30.9,2.7,47.2,2.7c7.8,0,15.6-0.2,23.2-0.7
		C275.1,316,275.1,316.1,275,316.3z M401.4,490.7c-52.6,0-97.1-34.7-112-82.4c-0.2-0.6-0.4-1.2-0.5-1.7c-0.3-1-0.6-2-0.8-2.9
		c-0.2-0.7-0.3-1.3-0.5-2c-0.1-0.5-0.3-1.1-0.4-1.6c-0.3-1.1-0.5-2.2-0.7-3.4c-0.1-0.5-0.2-0.9-0.3-1.4c-0.2-1-0.4-2-0.5-3
		c-0.1-0.3-0.1-0.6-0.2-0.9c-0.2-1.3-0.4-2.5-0.5-3.8c0-0.4-0.1-0.7-0.1-1.1c-0.1-1.2-0.3-2.4-0.4-3.7c0-0.1,0-0.2,0-0.3
		c-0.1-1.3-0.2-2.7-0.2-4c0-0.3,0-0.7,0-1c0-1.4-0.1-2.7-0.1-4.1c0-1.6,0-3.2,0.1-4.9c0-0.3,0-0.5,0-0.8c0.1-1.5,0.2-2.9,0.3-4.3
		c0-0.5,0.1-0.9,0.1-1.4c0.1-1.3,0.3-2.5,0.4-3.8c0.1-0.7,0.2-1.4,0.3-2s0.2-1.2,0.3-1.9c0.2-1.5,0.5-3,0.8-4.5c0,0,0,0,0-0.1
		c8.8-42.8,41-77.2,82.6-89.2c0.2,0,0.3-0.1,0.5-0.1c1-0.3,1.9-0.5,2.9-0.8c1.1-0.3,2.2-0.5,3.4-0.8c0.4-0.1,0.9-0.2,1.3-0.3
		c1.5-0.3,3-0.6,4.4-0.8c6.5-1.1,13.1-1.7,19.9-1.7c64.7,0,117.3,52.6,117.3,117.3C518.7,438,466.1,490.7,401.4,490.7z"/>
</g>
<g>
	<path class="st1" d="M1076.9,370.3c-8.9-6.1-20-9.1-30.6-12c-2.3-0.6-4.6-1.3-6.9-1.9c-13-3.8-21.4-11.4-22.4-20.2
		c-0.8-7.1,3.5-14,11.5-18.4c1.7-0.9,3.6-1.6,5.6-2.1v15.9c0,5.9,4.8,10.7,10.7,10.7s10.7-4.8,10.7-10.7v-15.1
		c6.2,1.5,12.3,4,17.3,7c5,3.1,11.6,1.4,14.6-3.6s1.4-11.6-3.6-14.6c-7.9-4.8-17.9-8.7-28.3-10.6V287c0-5.9-4.8-10.7-10.7-10.7
		s-10.7,4.8-10.7,10.7v7c-5.6,0.8-11,2.4-15.9,5.1c-15.6,8.6-24.1,23.7-22.4,39.4c1.9,17.7,16,32,37.5,38.4c0.2,0.1,0.5,0.1,0.7,0.2
		v50.2c-8.8-1.5-16.1-5.2-18.5-9.7c-2.7-5.2-9.1-7.3-14.4-4.6c-5.2,2.7-7.3,9.2-4.6,14.4c6.5,12.5,21.5,19.5,37.4,21.3v11.1
		c0,5.9,4.8,10.7,10.7,10.7s10.7-4.8,10.7-10.7v-11.9c2.2-0.4,4.4-1,6.4-1.6c16.7-5.3,29.2-19.8,31.7-37.1
		C1095.9,393.5,1089.6,379,1076.9,370.3z M1072.5,406.1c-1.3,9.2-8,17-17,19.8l0,0v-42.6c3.6,1.3,6.8,2.8,9.5,4.6
		C1073.3,393.7,1073,402.6,1072.5,406.1z"/>
	<path class="st1" d="M1044.8,234.7c-3.6,0-7.1,0.1-10.7,0.4V50.7c0-11.1-7.8-26.8-45-38.5C963.9,4.3,930.7,0,895.4,0
		c-35.3,0-68.5,4.3-93.7,12.2c-37.2,11.6-45,27.3-45,38.5v322.7c0,11.1,7.8,26.8,45,38.5c25.2,7.9,58.5,12.2,93.7,12.2
		c6.7,0,13.4-0.2,20.1-0.5c20.2,51.7,70.5,88.5,129.3,88.5c76.5,0,138.7-62.2,138.7-138.7C1183.4,296.9,1121.2,234.7,1044.8,234.7z
		 M808.1,32.6c23.2-7.2,54.2-11.2,87.3-11.2c33.1,0,64.2,4,87.3,11.2c24.5,7.7,30,15.8,30,18.1s-5.5,10.5-30,18.1
		C959.6,76,928.6,80,895.4,80c-33.2,0-64.1-4-87.3-11.2c-24.5-7.7-30-15.8-30-18.1S783.6,40.2,808.1,32.6z M778.1,79.3
		c6.1,3.5,13.8,6.8,23.6,9.9c25.2,7.9,58.5,12.2,93.7,12.2c35.2,0,68.5-4.4,93.7-12.3c9.8-3.1,17.5-6.4,23.6-9.9v25.2
		c0,2.3-5.5,10.4-30,18.1c-23.2,7.2-54.2,11.2-87.3,11.2c-15.4,0-30.4-0.9-44.6-2.6c-5.8-0.7-11.2,3.5-11.9,9.3s3.5,11.2,9.3,11.9
		c15.1,1.8,30.9,2.7,47.2,2.7c35.2,0,68.5-4.3,93.7-12.2c9.8-3.1,17.5-6.4,23.6-9.9v79c0,2.3-5.5,10.4-30,18.1
		c-23.2,7.2-54.2,11.2-87.3,11.2c-33.1,0-64.2-4-87.3-11.2c-24.5-7.7-30-15.8-30-18.1v-25.2c6.1,3.5,13.8,6.8,23.6,9.9
		c25.2,7.9,58.5,12.2,93.7,12.2c21,0,41.1-1.5,59.8-4.5c5.8-0.9,9.8-6.4,8.9-12.2c-0.9-5.8-6.4-9.8-12.2-8.9
		c-17.3,2.8-36.8,4.2-56.4,4.2c-33.1,0-64.2-4-87.3-11.2c-24.5-7.7-30-15.8-30-18.1L778.1,79.3L778.1,79.3z M895.4,402.7
		c-33.1,0-64.2-4-87.3-11.2c-24.5-7.7-30-15.8-30-18.1v-25.2c6.1,3.5,13.8,6.8,23.6,9.9c25.2,7.9,58.5,12.2,93.7,12.2
		c3.6,0,7.1,0,10.7-0.1c0,1.1,0,2.2,0,3.3c0,1.2,0,2.4,0,3.6c0,0.4,0,0.8,0,1.1c0,0.8,0.1,1.7,0.1,2.5c0,0.5,0.1,0.9,0.1,1.4
		c0,0.7,0.1,1.5,0.1,2.2c0,0.5,0.1,1,0.1,1.5c0.1,0.7,0.1,1.4,0.2,2.1c0.1,0.5,0.1,1.1,0.2,1.6c0.1,0.6,0.1,1.3,0.2,1.9
		c0.1,0.6,0.2,1.2,0.2,1.8c0.1,0.6,0.2,1.2,0.3,1.7c0.1,0.6,0.2,1.3,0.3,1.9c0.1,0.5,0.2,1,0.3,1.5c0.1,0.7,0.3,1.4,0.4,2.1
		c0.1,0.4,0.2,0.9,0.3,1.3c0.1,0.3,0.1,0.5,0.2,0.8C904.6,402.6,900,402.7,895.4,402.7z M918.4,316.3L918.4,316.3
		c-0.4,0.9-0.8,1.7-1.1,2.5c-0.1,0.2-0.2,0.5-0.3,0.7c-0.2,0.4-0.3,0.8-0.5,1.2c-3.7,8.9-6.4,18.2-8.2,27.9
		c-4.3,0.1-8.6,0.2-12.9,0.2c-33.1,0-64.2-4-87.3-11.2c-24.5-7.7-30-15.8-30-18.1v-79l0,0c6.1,3.5,13.8,6.8,23.6,9.9
		c25.2,7.9,58.5,12.2,93.7,12.2c28.1,0,54.9-2.8,77.4-7.9c-12.5,7.6-23.9,17.2-33.5,28.5c-2.8,3.3-5.4,6.7-7.9,10.1
		c-11.6,1.1-23.7,1.6-36,1.6c-15.4,0-30.4-0.9-44.6-2.6c-5.8-0.7-11.2,3.5-11.9,9.3s3.5,11.2,9.3,11.9c15.1,1.8,30.9,2.7,47.2,2.7
		c7.8,0,15.6-0.2,23.2-0.7C918.5,316,918.5,316.1,918.4,316.3z M1044.8,490.7c-52.6,0-97.1-34.7-112-82.4c-0.2-0.6-0.4-1.2-0.5-1.7
		c-0.3-1-0.6-2-0.8-2.9c-0.2-0.7-0.3-1.3-0.5-2c-0.1-0.5-0.3-1.1-0.4-1.6c-0.3-1.1-0.5-2.2-0.7-3.4c-0.1-0.5-0.2-0.9-0.3-1.4
		c-0.2-1-0.4-2-0.5-3c-0.1-0.3-0.1-0.6-0.2-0.9c-0.2-1.3-0.4-2.5-0.5-3.8c0-0.4-0.1-0.7-0.1-1.1c-0.1-1.2-0.3-2.4-0.4-3.7
		c0-0.1,0-0.2,0-0.3c-0.1-1.3-0.2-2.7-0.2-4c0-0.3,0-0.7,0-1c0-1.4-0.1-2.7-0.1-4.1c0-1.6,0-3.2,0.1-4.9c0-0.3,0-0.5,0-0.8
		c0.1-1.5,0.2-2.9,0.3-4.3c0-0.5,0.1-0.9,0.1-1.4c0.1-1.3,0.3-2.5,0.4-3.8c0.1-0.7,0.2-1.4,0.3-2c0.1-0.6,0.2-1.2,0.3-1.9
		c0.2-1.5,0.5-3,0.8-4.5c0,0,0,0,0-0.1c8.8-42.8,41-77.2,82.6-89.2c0.2,0,0.3-0.1,0.5-0.1c1-0.3,1.9-0.5,2.9-0.8
		c1.1-0.3,2.2-0.5,3.4-0.8c0.4-0.1,0.9-0.2,1.3-0.3c1.5-0.3,3-0.6,4.4-0.8c6.5-1.1,13.1-1.7,19.9-1.7c64.7,0,117.3,52.6,117.3,117.3
		C1162.1,438,1109.5,490.7,1044.8,490.7z"/>
</g>
</svg>
