<?xml version="1.0" encoding="utf-8"?>
<!-- Generator: Adobe Illustrator 23.0.3, SVG Export Plug-In . SVG Version: 6.00 Build 0)  -->
<svg version="1.1" id="Layer_1" xmlns="http://www.w3.org/2000/svg" xmlns:xlink="http://www.w3.org/1999/xlink" x="0px" y="0px"
	 viewBox="0 0 671 485.6" style="enable-background:new 0 0 671 485.6;" xml:space="preserve">
<style type="text/css">
	.st0{fill:#E7929B;}
	.st1{fill:#0000FF;}
	.st2{fill:#66FF33;stroke:#000000;stroke-miterlimit:10;}
	.st3{fill:#66CCFF;stroke:#000000;stroke-miterlimit:10;}
</style>
<g>
	<path class="st0" d="M411.1-288.7c-8.9-6.1-20-9.1-30.6-12c-2.3-0.6-4.6-1.3-6.9-1.9c-13-3.8-21.4-11.4-22.4-20.2
		c-0.8-7.1,3.5-14,11.5-18.4c1.7-0.9,3.6-1.6,5.6-2.1v15.9c0,5.9,4.8,10.7,10.7,10.7c5.9,0,10.7-4.8,10.7-10.7v-15.1
		c6.2,1.5,12.3,4,17.3,7c5,3.1,11.6,1.4,14.6-3.6s1.4-11.6-3.6-14.6c-7.9-4.8-17.9-8.7-28.3-10.6v-7.7c0-5.9-4.8-10.7-10.7-10.7
		c-5.9,0-10.7,4.8-10.7,10.7v7c-5.6,0.8-11,2.4-15.9,5.1c-15.6,8.6-24.1,23.7-22.4,39.4c1.9,17.7,16,32,37.5,38.4
		c0.2,0.1,0.5,0.1,0.7,0.2v50.2c-8.8-1.5-16.1-5.2-18.5-9.7c-2.7-5.2-9.1-7.3-14.4-4.6c-5.2,2.7-7.3,9.2-4.6,14.4
		c6.5,12.5,21.5,19.5,37.4,21.3v11.1c0,5.9,4.8,10.7,10.7,10.7c5.9,0,10.7-4.8,10.7-10.7v-11.9c2.2-0.4,4.4-1,6.4-1.6
		c16.7-5.3,29.2-19.8,31.7-37.1C430.1-265.5,423.8-280,411.1-288.7z M406.7-252.9c-1.3,9.2-8,17-17,19.8l0,0v-42.6
		c3.6,1.3,6.8,2.8,9.5,4.6C407.5-265.3,407.2-256.4,406.7-252.9z"/>
	<path class="st0" d="M379-424.3c-3.6,0-7.1,0.1-10.7,0.4v-184.4c0-11.1-7.8-26.8-45-38.5c-25.2-7.9-58.4-12.2-93.7-12.2
		s-68.5,4.3-93.7,12.2c-37.2,11.6-45,27.3-45,38.5v322.7c0,11.1,7.8,26.8,45,38.5c25.2,7.9,58.5,12.2,93.7,12.2
		c6.7,0,13.4-0.2,20.1-0.5c20.2,51.7,70.5,88.5,129.3,88.5c76.5,0,138.7-62.2,138.7-138.7C517.6-362.1,455.4-424.3,379-424.3z
		 M142.3-626.4c23.2-7.2,54.2-11.2,87.3-11.2s64.2,4,87.3,11.2c24.5,7.7,30,15.8,30,18.1c0,2.3-5.5,10.5-30,18.1
		c-23.1,7.2-54.1,11.2-87.3,11.2s-64.1-4-87.3-11.2c-24.5-7.7-30-15.8-30-18.1C112.3-610.6,117.8-618.8,142.3-626.4z M112.3-579.7
		c6.1,3.5,13.8,6.8,23.6,9.9c25.2,7.9,58.5,12.2,93.7,12.2s68.5-4.4,93.7-12.3c9.8-3.1,17.5-6.4,23.6-9.9v25.2
		c0,2.3-5.5,10.4-30,18.1c-23.2,7.2-54.2,11.2-87.3,11.2c-15.4,0-30.4-0.9-44.6-2.6c-5.8-0.7-11.2,3.5-11.9,9.3
		c-0.7,5.8,3.5,11.2,9.3,11.9c15.1,1.8,30.9,2.7,47.2,2.7c35.2,0,68.5-4.3,93.7-12.2c9.8-3.1,17.5-6.4,23.6-9.9v79
		c0,2.3-5.5,10.4-30,18.1c-23.2,7.2-54.2,11.2-87.3,11.2s-64.2-4-87.3-11.2c-24.5-7.7-30-15.8-30-18.1v-25.2
		c6.1,3.5,13.8,6.8,23.6,9.9c25.2,7.9,58.5,12.2,93.7,12.2c21,0,41.1-1.5,59.8-4.5c5.8-0.9,9.8-6.4,8.9-12.2
		c-0.9-5.8-6.4-9.8-12.2-8.9c-17.3,2.8-36.8,4.2-56.4,4.2c-33.1,0-64.2-4-87.3-11.2c-24.5-7.7-30-15.8-30-18.1L112.3-579.7
		L112.3-579.7z M229.6-256.3c-33.1,0-64.2-4-87.3-11.2c-24.5-7.7-30-15.8-30-18.1v-25.2c6.1,3.5,13.8,6.8,23.6,9.9
		c25.2,7.9,58.5,12.2,93.7,12.2c3.6,0,7.1,0,10.7-0.1c0,1.1,0,2.2,0,3.3c0,1.2,0,2.4,0,3.6c0,0.4,0,0.8,0,1.1c0,0.8,0.1,1.7,0.1,2.5
		c0,0.5,0.1,0.9,0.1,1.4c0,0.7,0.1,1.5,0.1,2.2c0,0.5,0.1,1,0.1,1.5c0.1,0.7,0.1,1.4,0.2,2.1c0.1,0.5,0.1,1.1,0.2,1.6
		c0.1,0.6,0.1,1.3,0.2,1.9s0.2,1.2,0.2,1.8c0.1,0.6,0.2,1.2,0.3,1.7c0.1,0.6,0.2,1.3,0.3,1.9c0.1,0.5,0.2,1,0.3,1.5
		c0.1,0.7,0.3,1.4,0.4,2.1c0.1,0.4,0.2,0.9,0.3,1.3c0.1,0.3,0.1,0.5,0.2,0.8C238.8-256.4,234.2-256.3,229.6-256.3z M252.6-342.7
		L252.6-342.7c-0.4,0.9-0.8,1.7-1.1,2.5c-0.1,0.2-0.2,0.5-0.3,0.7c-0.2,0.4-0.3,0.8-0.5,1.2c-3.7,8.9-6.4,18.2-8.2,27.9
		c-4.3,0.1-8.6,0.2-12.9,0.2c-33.1,0-64.2-4-87.3-11.2c-24.5-7.7-30-15.8-30-18.1v-79l0,0c6.1,3.5,13.8,6.8,23.6,9.9
		c25.2,7.9,58.5,12.2,93.7,12.2c28.1,0,54.9-2.8,77.4-7.9c-12.5,7.6-23.9,17.2-33.5,28.5c-2.8,3.3-5.4,6.7-7.9,10.1
		c-11.6,1.1-23.7,1.6-36,1.6c-15.4,0-30.4-0.9-44.6-2.6c-5.8-0.7-11.2,3.5-11.9,9.3s3.5,11.2,9.3,11.9c15.1,1.8,30.9,2.7,47.2,2.7
		c7.8,0,15.6-0.2,23.2-0.7C252.7-343,252.7-342.9,252.6-342.7z M379-168.3c-52.6,0-97.1-34.7-112-82.4c-0.2-0.6-0.4-1.2-0.5-1.7
		c-0.3-1-0.6-2-0.8-2.9c-0.2-0.7-0.3-1.3-0.5-2c-0.1-0.5-0.3-1.1-0.4-1.6c-0.3-1.1-0.5-2.2-0.7-3.4c-0.1-0.5-0.2-0.9-0.3-1.4
		c-0.2-1-0.4-2-0.5-3c-0.1-0.3-0.1-0.6-0.2-0.9c-0.2-1.3-0.4-2.5-0.5-3.8c0-0.4-0.1-0.7-0.1-1.1c-0.1-1.2-0.3-2.4-0.4-3.7
		c0-0.1,0-0.2,0-0.3c-0.1-1.3-0.2-2.7-0.2-4c0-0.3,0-0.7,0-1c0-1.4-0.1-2.7-0.1-4.1c0-1.6,0-3.2,0.1-4.9c0-0.3,0-0.5,0-0.8
		c0.1-1.5,0.2-2.9,0.3-4.3c0-0.5,0.1-0.9,0.1-1.4c0.1-1.3,0.3-2.5,0.4-3.8c0.1-0.7,0.2-1.4,0.3-2s0.2-1.2,0.3-1.9
		c0.2-1.5,0.5-3,0.8-4.5c0,0,0,0,0-0.1c8.8-42.8,41-77.2,82.6-89.2c0.2,0,0.3-0.1,0.5-0.1c1-0.3,1.9-0.5,2.9-0.8
		c1.1-0.3,2.2-0.5,3.4-0.8c0.4-0.1,0.9-0.2,1.3-0.3c1.5-0.3,3-0.6,4.4-0.8c6.5-1.1,13.1-1.7,19.9-1.7c64.7,0,117.3,52.6,117.3,117.3
		C496.3-221,443.7-168.3,379-168.3z"/>
</g>
<g>
	<path class="st1" d="M1054.5-288.7c-8.9-6.1-20-9.1-30.6-12c-2.3-0.6-4.6-1.3-6.9-1.9c-13-3.8-21.4-11.4-22.4-20.2
		c-0.8-7.1,3.5-14,11.5-18.4c1.7-0.9,3.6-1.6,5.6-2.1v15.9c0,5.9,4.8,10.7,10.7,10.7s10.7-4.8,10.7-10.7v-15.1
		c6.2,1.5,12.3,4,17.3,7c5,3.1,11.6,1.4,14.6-3.6s1.4-11.6-3.6-14.6c-7.9-4.8-17.9-8.7-28.3-10.6v-7.7c0-5.9-4.8-10.7-10.7-10.7
		s-10.7,4.8-10.7,10.7v7c-5.6,0.8-11,2.4-15.9,5.1c-15.6,8.6-24.1,23.7-22.4,39.4c1.9,17.7,16,32,37.5,38.4c0.2,0.1,0.5,0.1,0.7,0.2
		v50.2c-8.8-1.5-16.1-5.2-18.5-9.7c-2.7-5.2-9.1-7.3-14.4-4.6c-5.2,2.7-7.3,9.2-4.6,14.4c6.5,12.5,21.5,19.5,37.4,21.3v11.1
		c0,5.9,4.8,10.7,10.7,10.7s10.7-4.8,10.7-10.7v-11.9c2.2-0.4,4.4-1,6.4-1.6c16.7-5.3,29.2-19.8,31.7-37.1
		C1073.5-265.5,1067.2-280,1054.5-288.7z M1050.1-252.9c-1.3,9.2-8,17-17,19.8l0,0v-42.6c3.6,1.3,6.8,2.8,9.5,4.6
		C1050.9-265.3,1050.6-256.4,1050.1-252.9z"/>
	<path class="st1" d="M1022.4-424.3c-3.6,0-7.1,0.1-10.7,0.4v-184.4c0-11.1-7.8-26.8-45-38.5c-25.2-7.9-58.4-12.2-93.7-12.2
		s-68.5,4.3-93.7,12.2c-37.2,11.6-45,27.3-45,38.5v322.7c0,11.1,7.8,26.8,45,38.5c25.2,7.9,58.5,12.2,93.7,12.2
		c6.7,0,13.4-0.2,20.1-0.5c20.2,51.7,70.5,88.5,129.3,88.5c76.5,0,138.7-62.2,138.7-138.7C1161-362.1,1098.8-424.3,1022.4-424.3z
		 M785.7-626.4c23.2-7.2,54.2-11.2,87.3-11.2s64.2,4,87.3,11.2c24.5,7.7,30,15.8,30,18.1c0,2.3-5.5,10.5-30,18.1
		C937.2-583,906.2-579,873-579c-33.2,0-64.1-4-87.3-11.2c-24.5-7.7-30-15.8-30-18.1C755.7-610.6,761.2-618.8,785.7-626.4z
		 M755.7-579.7c6.1,3.5,13.8,6.8,23.6,9.9c25.2,7.9,58.5,12.2,93.7,12.2s68.5-4.4,93.7-12.3c9.8-3.1,17.5-6.4,23.6-9.9v25.2
		c0,2.3-5.5,10.4-30,18.1c-23.2,7.2-54.2,11.2-87.3,11.2c-15.4,0-30.4-0.9-44.6-2.6c-5.8-0.7-11.2,3.5-11.9,9.3
		c-0.7,5.8,3.5,11.2,9.3,11.9c15.1,1.8,30.9,2.7,47.2,2.7c35.2,0,68.5-4.3,93.7-12.2c9.8-3.1,17.5-6.4,23.6-9.9v79
		c0,2.3-5.5,10.4-30,18.1c-23.2,7.2-54.2,11.2-87.3,11.2s-64.2-4-87.3-11.2c-24.5-7.7-30-15.8-30-18.1v-25.2
		c6.1,3.5,13.8,6.8,23.6,9.9c25.2,7.9,58.5,12.2,93.7,12.2c21,0,41.1-1.5,59.8-4.5c5.8-0.9,9.8-6.4,8.9-12.2
		c-0.9-5.8-6.4-9.8-12.2-8.9c-17.3,2.8-36.8,4.2-56.4,4.2c-33.1,0-64.2-4-87.3-11.2c-24.5-7.7-30-15.8-30-18.1L755.7-579.7
		L755.7-579.7z M873-256.3c-33.1,0-64.2-4-87.3-11.2c-24.5-7.7-30-15.8-30-18.1v-25.2c6.1,3.5,13.8,6.8,23.6,9.9
		c25.2,7.9,58.5,12.2,93.7,12.2c3.6,0,7.1,0,10.7-0.1c0,1.1,0,2.2,0,3.3c0,1.2,0,2.4,0,3.6c0,0.4,0,0.8,0,1.1c0,0.8,0.1,1.7,0.1,2.5
		c0,0.5,0.1,0.9,0.1,1.4c0,0.7,0.1,1.5,0.1,2.2c0,0.5,0.1,1,0.1,1.5c0.1,0.7,0.1,1.4,0.2,2.1c0.1,0.5,0.1,1.1,0.2,1.6
		c0.1,0.6,0.1,1.3,0.2,1.9c0.1,0.6,0.2,1.2,0.2,1.8c0.1,0.6,0.2,1.2,0.3,1.7c0.1,0.6,0.2,1.3,0.3,1.9c0.1,0.5,0.2,1,0.3,1.5
		c0.1,0.7,0.3,1.4,0.4,2.1c0.1,0.4,0.2,0.9,0.3,1.3c0.1,0.3,0.1,0.5,0.2,0.8C882.2-256.4,877.6-256.3,873-256.3z M896-342.7
		L896-342.7c-0.4,0.9-0.8,1.7-1.1,2.5c-0.1,0.2-0.2,0.5-0.3,0.7c-0.2,0.4-0.3,0.8-0.5,1.2c-3.7,8.9-6.4,18.2-8.2,27.9
		c-4.3,0.1-8.6,0.2-12.9,0.2c-33.1,0-64.2-4-87.3-11.2c-24.5-7.7-30-15.8-30-18.1v-79l0,0c6.1,3.5,13.8,6.8,23.6,9.9
		c25.2,7.9,58.5,12.2,93.7,12.2c28.1,0,54.9-2.8,77.4-7.9c-12.5,7.6-23.9,17.2-33.5,28.5c-2.8,3.3-5.4,6.7-7.9,10.1
		c-11.6,1.1-23.7,1.6-36,1.6c-15.4,0-30.4-0.9-44.6-2.6c-5.8-0.7-11.2,3.5-11.9,9.3s3.5,11.2,9.3,11.9c15.1,1.8,30.9,2.7,47.2,2.7
		c7.8,0,15.6-0.2,23.2-0.7C896.1-343,896.1-342.9,896-342.7z M1022.4-168.3c-52.6,0-97.1-34.7-112-82.4c-0.2-0.6-0.4-1.2-0.5-1.7
		c-0.3-1-0.6-2-0.8-2.9c-0.2-0.7-0.3-1.3-0.5-2c-0.1-0.5-0.3-1.1-0.4-1.6c-0.3-1.1-0.5-2.2-0.7-3.4c-0.1-0.5-0.2-0.9-0.3-1.4
		c-0.2-1-0.4-2-0.5-3c-0.1-0.3-0.1-0.6-0.2-0.9c-0.2-1.3-0.4-2.5-0.5-3.8c0-0.4-0.1-0.7-0.1-1.1c-0.1-1.2-0.3-2.4-0.4-3.7
		c0-0.1,0-0.2,0-0.3c-0.1-1.3-0.2-2.7-0.2-4c0-0.3,0-0.7,0-1c0-1.4-0.1-2.7-0.1-4.1c0-1.6,0-3.2,0.1-4.9c0-0.3,0-0.5,0-0.8
		c0.1-1.5,0.2-2.9,0.3-4.3c0-0.5,0.1-0.9,0.1-1.4c0.1-1.3,0.3-2.5,0.4-3.8c0.1-0.7,0.2-1.4,0.3-2s0.2-1.2,0.3-1.9
		c0.2-1.5,0.5-3,0.8-4.5c0,0,0,0,0-0.1c8.8-42.8,41-77.2,82.6-89.2c0.2,0,0.3-0.1,0.5-0.1c1-0.3,1.9-0.5,2.9-0.8
		c1.1-0.3,2.2-0.5,3.4-0.8c0.4-0.1,0.9-0.2,1.3-0.3c1.5-0.3,3-0.6,4.4-0.8c6.5-1.1,13.1-1.7,19.9-1.7c64.7,0,117.3,52.6,117.3,117.3
		C1139.7-221,1087.1-168.3,1022.4-168.3z"/>
</g>
<rect x="82.7" y="65.9" class="st2" width="133.3" height="332.4"/>
<rect x="280.5" y="65.9" class="st3" width="316.9" height="332.4"/>
</svg>
